<svg id="exRJhqsvQ6w1" xmlns="http://www.w3.org/2000/svg" xmlns:xlink="http://www.w3.org/1999/xlink" viewBox="0 0 250 250" shape-rendering="geometricPrecision" text-rendering="geometricPrecision" project-id="ad5f35787a9143aebca94c6496b5c454" export-id="2add5542bedb4a379f3d2be578b339e0" cached="false"><defs><linearGradient id="exRJhqsvQ6w3-fill" x1="0.5" y1="0" x2="0.5" y2="1" spreadMethod="pad" gradientUnits="objectBoundingBox" gradientTransform="translate(0 0)"><stop id="exRJhqsvQ6w3-fill-0" offset="0%" stop-color="#53bef3"/><stop id="exRJhqsvQ6w3-fill-1" offset="100%" stop-color="#017fbe"/></linearGradient><linearGradient id="exRJhqsvQ6w4-fill" x1="0.5" y1="0" x2="0.5" y2="1" spreadMethod="pad" gradientUnits="objectBoundingBox" gradientTransform="translate(0 0)"><stop id="exRJhqsvQ6w4-fill-0" offset="0%" stop-color="#51bcf3"/><stop id="exRJhqsvQ6w4-fill-1" offset="100%" stop-color="#2c89eb"/></linearGradient><linearGradient id="exRJhqsvQ6w5-fill" x1="0.213212" y1="0.909576" x2="0.786788" y2="0.090424" spreadMethod="pad" gradientUnits="objectBoundingBox" gradientTransform="translate(0 0)"><stop id="exRJhqsvQ6w5-fill-0" offset="0%" stop-color="#03dabd"/><stop id="exRJhqsvQ6w5-fill-1" offset="100%" stop-color="#0787fb"/></linearGradient><linearGradient id="exRJhqsvQ6w6-fill" x1="0.213212" y1="0.090425" x2="0.786788" y2="0.909575" spreadMethod="pad" gradientUnits="objectBoundingBox" gradientTransform="translate(0 0)"><stop id="exRJhqsvQ6w6-fill-0" offset="0%" stop-color="#1acbec"/><stop id="exRJhqsvQ6w6-fill-1" offset="100%" stop-color="#0097dd"/></linearGradient></defs><g transform="translate(-691.218292-413.064332)"><path d="M869.8696,441.09693c13.804801,0,19.750487,10.747205,19.75049,20.524789s.000003,130.460066.000003,130.460066l-6.71207,6.387386-31.753497-1.782897c0,0-1.630742-127.69205-.815371-137.064556s5.725644-18.524788,19.530445-18.524788Z" transform="translate(-.000024 0.000001)" fill="url(#exRJhqsvQ6w3-fill)" stroke-width="3.84"/><path d="M869.8696,441.09693c13.804801,0,19.750487,10.747205,19.75049,20.524789s0,131.460065.000003,142.460066-8.029173,19.388125-19.71207,19.387386-19.753497-7.223444-19.753497-19.782897-.630742-134.69205.184629-144.064556s5.725644-18.524788,19.530445-18.524788Z" transform="translate(47.022792 0.000001)" fill="url(#exRJhqsvQ6w4-fill)" stroke-width="3.84"/><path d="M736.739058,613.469168c-4.258293,11.070032-14.891643,19.921242-30.348885,12.5358s-14.068731-21.453015-9.556433-31.923187s50.332072-123.682481,50.332072-123.682481l26.744724-13.777585l9.725354,10.5358l4.862677,16.208922c0,0-47.501216,119.032699-51.759509,130.102731Z" transform="translate(2.000002 0.000004)" fill="url(#exRJhqsvQ6w5-fill)" stroke-width="3.84"/><path d="M889.939206,592.126816c0,0-5.686558,5.051753-11.536103,3.954963s-14.618332-17.793769-14.618332-17.793769-48.927014-100.594697-54.686195-111.130497-17.321267-19.611237-25.462686-19.857499-21.372428,0-27.631042,9.321703-9.44136,20.154136-9.44136,20.154136s8.915633-4.622,15.699974-2.311s13.647074,17.59427,13.647074,17.59427s51.451,107.975309,55.927861,117.328135s14.626283,16.617708,27.433595,16.617708s19.749461-4.687733,24.721528-10.5358s5.945686-23.34235,5.945686-23.34235Z" transform="translate(-.319116 0.000006)" fill="url(#exRJhqsvQ6w6-fill)" stroke-width="3.84"/></g></svg>
